#!OML:ASF G:\JayActor3\Patient Classification 1\Patient 1\Session 5\male.ASF
:FULLY-SPECIFIED
:DEGREES
519
root 12.4836 17.7804 -5.11301 -37.696 85.3508 -58.6037
lowerback 21.2869 -2.15413 3.12977
upperback 6.19034 -1.77861 -0.370652
thorax -5.25527 -0.712238 -1.74637
lowerneck 4.37547 1.08161 2.72111
upperneck -19.7787 2.39313 0.966249
head -6.72425 1.06753 -0.336323
rclavicle 1.63003e-014 -1.27222e-014
rhumerus -27.7962 0.0196188 -89.9231
rradius 31.1037
rwrist 0.980459
rhand -21.6503 -8.38825
rfingers 7.12502
rthumb 4.74641 -38.3151
lclavicle 1.63003e-014 -1.27222e-014
lhumerus -29.941 4.23974 83.9226
lradius 31.2521
lwrist 24.0127
lhand -20.5935 11.0611
lfingers 7.12502
lthumb 5.76682 40.9627
rfemur -46.816 5.40593 20.5833
rtibia 55.0102
rfoot -5.15826 -2.90811
rtoes -7.3958
lfemur -33.9865 18.6581 -27.032
ltibia 26.3868
lfoot 9.67751 -11.3978
ltoes -8.49817
520
root 12.3828 17.7891 -5.1203 -37.809 85.2802 -58.7419
lowerback 21.2158 -2.13158 3.13549
upperback 6.18041 -1.75322 -0.374485
thorax -5.22827 -0.700663 -1.76135
lowerneck 4.36934 1.07935 2.71897
upperneck -19.7036 2.39056 0.996913
head -6.69951 1.06386 -0.325238
rclavicle -3.97569e-016 -3.97569e-015
rhumerus -27.8682 -0.192671 -89.8098
rradius 30.9773
rwrist 1.08963
rhand -21.7595 -8.20902
rfingers 7.12502
rthumb 4.64103 -38.1382
lclavicle -3.97569e-016 -3.97569e-015
lhumerus -30.0101 4.28224 83.8475
lradius 31.1498
lwrist 23.9605
lhand -20.494 11.1292
lfingers 7.12502
lthumb 5.8629 41.0281
rfemur -46.001 5.50517 20.7117
rtibia 55.995
rfoot -4.38292 -2.72282
rtoes -7.26144
lfemur -34.339 18.8064 -27.1368
ltibia 26.1734
lfoot 10.1379 -11.3429
ltoes -8.49722
521
root 12.2828 17.7971 -5.12728 -37.8071 85.2185 -58.7378
lowerback 21.1502 -2.10893 3.13206
upperback 6.17476 -1.7294 -0.383929
thorax -5.19945 -0.689553 -1.77666
lowerneck 4.35412 1.07385 2.71652
upperneck -19.6078 2.38182 1.02742
head -6.66657 1.0573 -0.313472
rclavicle -1.78906e-014 -3.97569e-015
rhumerus -27.9416 -0.381071 -89.7055
rradius 30.8494
rwrist 1.20219
rhand -21.8863 -8.10521
rfingers 7.12502
rthumb 4.5186 -38.037
lclavicle -1.78906e-014 -3.97569e-015
lhumerus -30.0753 4.32421 83.7739
lradius 31.0279
lwrist 23.8708
lhand -20.3788 11.2131
lfingers 7.12502
lthumb 5.9741 41.1089
rfemur -45.1217 5.58495 20.8287
rtibia 56.8964
rfoot -3.60642 -2.60687
rtoes -7.01699
lfemur -34.6131 18.925 -27.2412
ltibia 25.8973
lfoot 10.5757 -11.2852
ltoes -8.4389
522
root 12.1836 17.804 -5.13412 -37.783 85.1606 -58.6832
lowerback 21.0937 -2.09076 3.1245
upperback 6.1753 -1.7113 -0.392882
thorax -5.16878 -0.680848 -1.78753
lowerneck 4.36658 1.07797 2.68309
upperneck -19.5333 2.38681 1.06926
head -6.64565 1.05836 -0.294303
rclavicle -2.78299e-015 1.11319e-014
rhumerus -28.0086 -0.52077 -89.6154
rradius 30.7324
rwrist 1.30531
rhand -21.9818 -8.14948
rfingers 7.12502
rthumb 4.42637 -38.0832
lclavicle -2.78299e-015 1.11319e-014
lhumerus -30.1397 4.38818 83.7004
lradius 30.8911
lwrist 23.7595
lhand -20.2633 11.2951
lfingers 7.12502
lthumb 6.08564 41.1877
rfemur -44.1815 5.64047 20.9437
rtibia 57.712
rfoot -2.85842 -2.54881
rtoes -6.69869
lfemur -34.8226 19.0204 -27.3399
ltibia 25.5805
lfoot 10.9881 -11.2325
ltoes -8.33532
523
root 12.085 17.8095 -5.14092 -37.8763 85.1017 -58.7184
lowerback 21.049 -2.07677 3.13222
upperback 6.1787 -1.6946 -0.40152
thorax -5.14159 -0.672668 -1.80621
lowerneck 4.37203 1.07887 2.66739
upperneck -19.4479 2.38494 1.09256
head -6.61967 1.05633 -0.283408
rclavicle 1.94809e-014 2.38542e-015
rhumerus -28.0766 -0.638854 -89.5307
rradius 30.6024
rwrist 1.43116
rhand -22.0829 -8.18129
rfingers 7.12502
rthumb 4.32868 -38.1171
lclavicle 1.94809e-014 2.38542e-015
lhumerus -30.2102 4.45347 83.6273
lradius 30.7453
lwrist 23.6436
lhand -20.1679 11.3807
lfingers 7.12502
lthumb 6.17771 41.2706
rfemur -43.1838 5.66746 21.0696
rtibia 58.4394
rfoot -2.16845 -2.54277
rtoes -6.42728
lfemur -34.9775 19.0815 -27.4156
ltibia 25.2438
lfoot 11.3752 -11.1767
ltoes -8.14644
524
root 11.9868 17.8138 -5.14779 -38.141 85.0407 -58.9016
lowerback 21.0132 -2.07023 3.15575
upperback 6.18702 -1.6831 -0.404623
thorax -5.11421 -0.666766 -1.82652
lowerneck 4.37401 1.08284 2.65325
upperneck -19.3651 2.38537 1.10418
head -6.59369 1.0563 -0.276665
rclavicle -1.35174e-014 2.38542e-015
rhumerus -28.1371 -0.716215 -89.4554
rradius 30.4955
rwrist 1.52163
rhand -22.108 -8.33901
rfingers 7.12502
rthumb 4.30449 -38.2753
lclavicle -1.35174e-014 2.38542e-015
lhumerus -30.2833 4.54018 83.5551
lradius 30.5929
lwrist 23.5326
lhand -20.0945 11.452
lfingers 7.12502
lthumb 6.24863 41.3398
rfemur -42.1385 5.6608 21.2099
rtibia 59.0773
rfoot -1.54312 -2.58071
rtoes -6.39404
lfemur -35.0912 19.0956 -27.4579
ltibia 24.906
lfoot 11.7296 -11.1084
ltoes -7.87683
525
root 11.8888 17.8169 -5.15455 -38.6489 84.9768 -59.3118
lowerback 20.9846 -2.06975 3.20496
upperback 6.1959 -1.67349 -0.403999
thorax -5.09056 -0.661774 -1.85685
lowerneck 4.39513 1.08985 2.64022
upperneck -19.3032 2.39201 1.1164
head -6.57775 1.05894 -0.27069
rclavicle -8.74653e-015 -2.22639e-014
rhumerus -28.1966 -0.788382 -89.3827
rradius 30.3776
rwrist 1.62726
rhand -22.1191 -8.45892
rfingers 7.12502
rthumb 4.29375 -38.3954
lclavicle -8.74653e-015 -2.22639e-014
lhumerus -30.3627 4.63444 83.4812
lradius 30.4368
lwrist 23.438
lhand -20.0475 11.5005
lfingers 7.12502
lthumb 6.29391 41.387
rfemur -41.0577 5.62208 21.3692
rtibia 59.6249
rfoot -0.966433 -2.65927
rtoes -6.49303
lfemur -35.1816 19.0639 -27.4608
ltibia 24.5811
lfoot 12.0477 -11.0403
ltoes -7.5747
526
root 11.7907 17.8185 -5.1609 -39.3172 84.9125 -59.8765
lowerback 20.9558 -2.0715 3.27071
upperback 6.20255 -1.66332 -0.400478
thorax -5.06945 -0.656636 -1.8936
lowerneck 4.40609 1.09218 2.64442
upperneck -19.2371 2.39231 1.12091
head -6.5585 1.05805 -0.269501
rclavicle -6.75868e-015 -2.38542e-014
rhumerus -28.2614 -0.86845 -89.3088
rradius 30.258
rwrist 1.74161
rhand -22.119 -8.53115
rfingers 7.12502
rthumb 4.29389 -38.4676
lclavicle -6.75868e-015 -2.38542e-014
lhumerus -30.4493 4.73342 83.4055
lradius 30.2843
lwrist 23.3577
lhand -20.0273 11.5341
lfingers 7.12502
lthumb 6.31346 41.42
rfemur -39.9595 5.55729 21.539
rtibia 60.0855
rfoot -0.431893 -2.77025
rtoes -6.68868
lfemur -35.2675 18.9862 -27.4298
ltibia 24.2776
lfoot 12.3358 -10.9679
ltoes -7.24523
527
root 11.6925 17.8186 -5.16652 -40.1551 84.8449 -60.6078
lowerback 20.9273 -2.07611 3.35039
upperback 6.20823 -1.65372 -0.39208
thorax -5.0498 -0.651829 -1.93287
lowerneck 4.42552 1.09697 2.64577
upperneck -19.1894 2.39868 1.13343
head -6.54674 1.05965 -0.26593
rclavicle 1.07344e-014 7.95139e-015
rhumerus -28.3246 -0.958043 -89.2335
rradius 30.138
rwrist 1.85572
rhand -22.1002 -8.57383
rfingers 7.12502
rthumb 4.31205 -38.5099
lclavicle 1.07344e-014 7.95139e-015
lhumerus -30.5338 4.8486 83.3254
lradius 30.1303
lwrist 23.2957
lhand -20.0333 11.5481
lfingers 7.12502
lthumb 6.30763 41.4342
rfemur -38.8519 5.47673 21.7213
rtibia 60.4608
rfoot 0.0802322 -2.90662
rtoes -6.82707
lfemur -35.3579 18.8811 -27.3653
ltibia 23.9991
lfoot 12.6032 -10.9053
ltoes -6.91768
528
root 11.5938 17.8168 -5.17118 -41.0651 84.7782 -61.4173
lowerback 20.8952 -2.08158 3.4345
upperback 6.20947 -1.64467 -0.381475
thorax -5.03312 -0.647517 -1.97215
lowerneck 4.42982 1.09908 2.65004
upperneck -19.1378 2.40259 1.15292
head -6.53123 1.05959 -0.260302
rclavicle -1.35174e-014 -2.94201e-014
rhumerus -28.3938 -1.06127 -89.1587
rradius 30.0279
rwrist 1.96115
rhand -22.0713 -8.60706
rfingers 7.12502
rthumb 4.33996 -38.5426
lclavicle -1.35174e-014 -2.94201e-014
lhumerus -30.618 4.97101 83.2441
lradius 29.9829
lwrist 23.2409
lhand -20.053 11.5452
lfingers 7.12502
lthumb 6.28861 41.4318
rfemur -37.7572 5.38681 21.9063
rtibia 60.7561
rfoot 0.596104 -3.05454
rtoes -6.94536
lfemur -35.4681 18.7599 -27.2829
ltibia 23.7455
lfoot 12.8758 -10.8284
ltoes -6.49238
529
root 11.4945 17.8131 -5.17461 -41.9151 84.7156 -62.1731
lowerback 20.8604 -2.08311 3.50958
upperback 6.20703 -1.63284 -0.372127
thorax -5.01865 -0.642026 -2.00832
lowerneck 4.41303 1.09508 2.66529
upperneck -19.0772 2.39877 1.1742
head -6.50911 1.05522 -0.255153
rclavicle -7.95139e-016 1.59028e-014
rhumerus -28.4639 -1.18897 -89.0839
rradius 29.9253
rwrist 2.04997
rhand -22.0402 -8.63571
rfingers 7.12502
rthumb 4.3699 -38.5706
lclavicle -7.95139e-016 1.59028e-014
lhumerus -30.695 5.09004 83.1625
lradius 29.8383
lwrist 23.1922
lhand -20.088 11.5533
lfingers 7.12502
lthumb 6.25482 41.441
rfemur -36.6807 5.29894 22.0815
rtibia 60.9729
rfoot 1.11072 -3.20009
rtoes -7.0299
lfemur -35.5977 18.6324 -27.195
ltibia 23.513
lfoot 13.1627 -10.7353
ltoes -5.98971
530
root 11.3945 17.8075 -5.17659 -42.6258 84.6567 -62.7956
lowerback 20.8216 -2.08071 3.56313
upperback 6.20359 -1.62067 -0.363039
thorax -5.0026 -0.636384 -2.03265
lowerneck 4.39504 1.09435 2.65804
upperneck -19.027 2.40161 1.21664
head -6.49061 1.05413 -0.240058
rclavicle -3.18055e-015 7.15625e-015
rhumerus -28.5257 -1.329 -89.0104
rradius 29.8243
rwrist 2.11953
rhand -22.0139 -8.64853
rfingers 7.12502
rthumb 4.39535 -38.5829
lclavicle -3.18055e-015 7.15625e-015
lhumerus -30.7613 5.21535 83.0821
lradius 29.699
lwrist 23.141
lhand -20.1236 11.5546
lfingers 7.12502
lthumb 6.22053 41.4433
rfemur -35.6261 5.231 22.2424
rtibia 61.1103
rfoot 1.6285 -3.33537
rtoes -7.15744
lfemur -35.7476 18.5179 -27.1118
ltibia 23.2966
lfoot 13.4706 -10.6406
ltoes -5.42624
531
root 11.2939 17.8003 -5.17693 -43.1676 84.6043 -63.2505
lowerback 20.7827 -2.07259 3.59285
upperback 6.19839 -1.60642 -0.35883
thorax -4.98786 -0.629778 -2.04913
lowerneck 4.37859 1.09153 2.65544
upperneck -18.984 2.40296 1.26114
head -6.47469 1.05184 -0.225065
rclavicle -3.06128e-014 6.36111e-015
rhumerus -28.5858 -1.48196 -88.9457
rradius 29.7287
rwrist 2.16721
rhand -22.0002 -8.65768
rfingers 7.12502
rthumb 4.40853 -38.5918
lclavicle -3.06128e-014 6.36111e-015
lhumerus -30.8229 5.32934 83.0013
lradius 29.5687
lwrist 23.0838
lhand -20.1579 11.5621
lfingers 7.12502
lthumb 6.1874 41.4518
rfemur -34.5852 5.19783 22.3845
rtibia 61.1617
rfoot 2.13876 -3.44188
rtoes -7.36524
lfemur -35.9096 18.4158 -27.0361
ltibia 23.0934
lfoot 13.7926 -10.5548
ltoes -4.86818
532
root 11.1927 17.7919 -5.1758 -43.4515 84.5581 -63.4453
lowerback 20.7432 -2.05835 3.58967
upperback 6.19509 -1.59128 -0.360222
thorax -4.97 -0.622582 -2.05315
lowerneck 4.36756 1.09111 2.64652
upperneck -18.9525 2.40855 1.30992
head -6.46351 1.05167 -0.208092
rclavicle -3.57812e-015 -1.82882e-014
rhumerus -28.6381 -1.63501 -88.8919
rradius 29.6376
rwrist 2.20053
rhand -22.0057 -8.65639
rfingers 7.12502
rthumb 4.40329 -38.5906
lclavicle -3.57812e-015 -1.82882e-014
lhumerus -30.8814 5.43739 82.9213
lradius 29.4528
lwrist 23.014
lhand -20.1863 11.562
lfingers 7.12502
lthumb 6.15994 41.4525
rfemur -33.5518 5.21442 22.5015
rtibia 61.1178
rfoot 2.64526 -3.49911
rtoes -7.6236
lfemur -36.0777 18.3203 -26.9696
ltibia 22.9048
lfoot 14.1098 -10.4836
ltoes -4.37593
